<?xml version="1.0" standalone="no"?>
<!DOCTYPE svg PUBLIC "-//W3C//DTD SVG 20010904//EN"
 "http://www.w3.org/TR/2001/REC-SVG-20010904/DTD/svg10.dtd">
<svg version="1.0" xmlns="http://www.w3.org/2000/svg"
 width="64.000000pt" height="64.000000pt" viewBox="0 0 64.000000 64.000000"
 preserveAspectRatio="xMidYMid meet">

<g transform="translate(0.000000,64.000000) scale(0.100000,-0.100000)"
fill="#000000" stroke="none">
<path d="M225 610 c-11 -22 -14 -44 -10 -70 4 -23 0 -59 -11 -95 -11 -40 -14
-75 -10 -112 6 -51 5 -53 -13 -43 -35 18 -76 11 -120 -21 -43 -32 -49 -54 -19
-72 12 -8 24 -4 53 17 36 28 38 28 69 13 l31 -16 -31 0 c-33 -1 -62 -26 -86
-76 -19 -37 -13 -55 17 -55 16 0 30 11 44 35 25 43 49 47 44 7 -8 -58 64 -122
137 -122 73 0 145 64 137 122 -5 40 19 36 44 -6 24 -41 43 -50 64 -30 13 14
13 19 -1 47 -26 52 -55 77 -88 78 l-31 0 31 16 c31 15 33 15 69 -13 29 -21 41
-25 53 -17 30 18 24 40 -19 72 -44 32 -85 39 -120 21 -18 -10 -19 -8 -13 43 4
37 1 72 -10 112 -11 36 -15 72 -11 95 9 51 -17 103 -48 98 -15 -2 -23 -11 -25
-29 -2 -21 -8 -26 -32 -26 -24 0 -30 5 -32 26 -5 40 -43 41 -63 1z m45 -19 c0
-30 -29 -67 -31 -40 -3 37 7 69 21 69 5 0 10 -13 10 -29z m131 -2 c3 -13 4
-30 1 -37 -8 -22 -32 8 -32 40 0 35 21 34 31 -3z m-25 -64 c34 -45 56 -135 48
-197 l-6 -47 -36 19 c-46 25 -78 25 -124 0 l-36 -19 -6 47 c-8 62 14 152 48
197 37 48 75 48 112 0z m-7 -240 c16 -8 34 -28 40 -45 10 -30 9 -31 -12 -23
-12 4 -47 8 -77 8 -30 0 -65 -4 -77 -8 -21 -8 -22 -7 -12 23 19 53 83 74 138
45z m-190 -16 c17 -6 31 -15 31 -20 0 -12 -10 -11 -49 2 -28 10 -36 8 -71 -15
-21 -14 -42 -21 -45 -16 -7 11 63 60 86 60 9 0 30 -5 48 -11z m384 -15 c21
-14 35 -29 32 -34 -3 -5 -24 2 -46 17 -36 24 -44 25 -73 15 -39 -14 -46 -15
-46 -3 0 11 46 29 75 30 11 1 37 -10 58 -25z m-164 -71 c40 -37 46 -70 22
-110 -27 -43 -85 -61 -141 -44 -28 8 -47 22 -60 44 -28 45 -25 64 14 103 30
30 40 34 85 34 41 0 56 -5 80 -27z m-194 -3 c-3 -5 -17 -10 -30 -10 -22 0 -57
-33 -68 -63 -2 -7 -8 -8 -13 -4 -8 8 21 66 40 79 17 12 78 10 71 -2z m319 -23
c26 -33 33 -57 19 -57 -5 1 -17 15 -28 33 -12 19 -30 33 -45 35 -42 6 -47 22
-8 22 30 0 42 -6 62 -33z"/>
<path d="M263 463 c-29 -11 -9 -18 57 -18 70 0 89 7 48 19 -27 7 -88 7 -105
-1z"/>
<path d="M253 383 c-7 -2 -13 -11 -13 -19 0 -11 4 -12 19 -4 11 5 38 10 61 10
23 0 50 -5 61 -10 15 -8 19 -7 19 4 0 7 -7 17 -16 20 -18 7 -113 7 -131 -1z"/>
<path d="M240 110 c0 -5 5 -10 11 -10 5 0 7 5 4 10 -3 6 -8 10 -11 10 -2 0 -4
-4 -4 -10z"/>
<path d="M385 110 c-3 -5 -1 -10 4 -10 6 0 11 5 11 10 0 6 -2 10 -4 10 -3 0
-8 -4 -11 -10z"/>
<path d="M270 71 c0 -13 46 -22 75 -15 42 10 28 24 -25 24 -27 0 -50 -4 -50
-9z"/>
</g>
</svg>
