<?xml version="1.0" standalone="no"?>
<!DOCTYPE svg PUBLIC "-//W3C//DTD SVG 20010904//EN"
 "http://www.w3.org/TR/2001/REC-SVG-20010904/DTD/svg10.dtd">
<svg version="1.0" xmlns="http://www.w3.org/2000/svg"
 width="64.000000pt" height="64.000000pt" viewBox="0 0 64.000000 64.000000"
 preserveAspectRatio="xMidYMid meet">

<g transform="translate(0.000000,64.000000) scale(0.100000,-0.100000)"
fill="#000000" stroke="none">
<path d="M406 499 c-31 -34 -46 -60 -46 -79 0 -26 -26 -60 -47 -60 -17 0 -43
35 -43 59 0 30 -25 77 -52 95 -27 19 -89 21 -106 4 -17 -17 -15 -74 4 -104 20
-30 63 -54 97 -54 13 0 32 -9 42 -20 19 -21 18 -22 -74 -114 -64 -64 -92 -99
-89 -112 8 -42 40 -27 132 65 l91 91 90 -90 c62 -63 96 -90 110 -88 44 6 28
39 -66 134 -92 92 -93 93 -74 114 10 11 31 20 46 20 19 0 44 15 81 49 29 27
50 53 45 57 -4 4 -22 -7 -40 -24 -48 -46 -58 -39 -12 8 50 52 37 66 -15 15
-52 -50 -65 -37 -15 15 51 52 37 65 -15 15 -22 -22 -40 -34 -40 -29 0 6 14 23
30 39 17 16 30 32 30 37 0 19 -21 5 -64 -43z m-181 -21 c14 -16 25 -42 25 -58
0 -22 13 -40 52 -77 197 -180 243 -233 205 -233 -13 0 -97 84 -214 213 -42 46
-58 57 -83 57 -42 0 -90 47 -90 89 0 56 61 61 105 9z m219 -90 c-3 -4 -16 -8
-30 -8 -14 0 -35 -11 -48 -25 -13 -13 -26 -22 -29 -18 -4 3 5 16 18 29 14 13
25 34 25 47 0 13 3 27 7 30 9 9 64 -44 57 -55z m-149 -98 c8 -13 -152 -180
-172 -180 -29 0 -9 31 72 109 46 44 87 81 89 81 3 0 8 -5 11 -10z"/>
</g>
</svg>
