<?xml version="1.0" standalone="no"?>
<!DOCTYPE svg PUBLIC "-//W3C//DTD SVG 20010904//EN"
 "http://www.w3.org/TR/2001/REC-SVG-20010904/DTD/svg10.dtd">
<svg version="1.0" xmlns="http://www.w3.org/2000/svg"
 width="64.000000pt" height="64.000000pt" viewBox="0 0 64.000000 64.000000"
 preserveAspectRatio="xMidYMid meet">

<g transform="translate(0.000000,64.000000) scale(0.100000,-0.100000)"
fill="#000000" stroke="none">
<path d="M540 623 c0 -7 -7 -13 -15 -13 -8 0 -15 -7 -15 -16 0 -8 -4 -13 -9
-10 -5 3 -11 -7 -14 -22 -3 -15 -31 -52 -62 -82 -49 -48 -58 -53 -75 -42 -11
6 -37 12 -59 12 -31 0 -44 -6 -64 -30 -14 -16 -28 -39 -32 -50 -4 -13 -24 -24
-66 -36 -64 -18 -113 -61 -125 -110 -24 -95 125 -244 220 -220 49 12 92 61
110 125 12 42 23 62 36 66 11 4 34 18 50 32 33 27 40 71 18 118 -11 24 -8 30
43 81 30 30 66 58 81 61 15 3 25 9 22 14 -3 5 2 9 10 9 9 0 16 7 16 15 0 8 6
15 13 15 22 0 19 52 -5 77 -23 25 -78 29 -78 6z m64 -19 c23 -22 21 -27 -24
-68 -44 -39 -50 -42 -68 -24 -18 18 -15 24 24 68 41 45 46 47 68 24z m-176
-205 c-79 -86 -82 -89 -100 -72 -19 17 -18 20 69 99 64 60 91 79 100 72 10 -8
-8 -32 -69 -99z m-90 22 c10 -6 2 -17 -28 -44 -22 -21 -44 -37 -49 -37 -37 0
-53 -70 -24 -102 28 -31 103 -15 103 23 0 5 16 27 37 49 40 45 53 41 53 -17 0
-23 -7 -37 -26 -50 -69 -49 -82 -64 -89 -104 -9 -49 -55 -105 -95 -114 -36 -8
-105 21 -142 61 -37 40 -61 100 -53 135 9 39 65 86 114 94 40 7 55 20 104 89
18 27 67 35 95 17z m-39 -101 c25 -13 33 -37 21 -61 -12 -21 -50 -25 -68 -7
-18 18 -15 55 6 67 21 13 20 13 41 1z"/>
<path d="M100 212 c0 -14 109 -116 117 -109 4 4 -18 32 -47 62 -52 52 -70 65
-70 47z"/>
</g>
</svg>
