<?xml version="1.0" standalone="no"?>
<!DOCTYPE svg PUBLIC "-//W3C//DTD SVG 20010904//EN"
 "http://www.w3.org/TR/2001/REC-SVG-20010904/DTD/svg10.dtd">
<svg version="1.0" xmlns="http://www.w3.org/2000/svg"
 width="64.000000pt" height="64.000000pt" viewBox="0 0 64.000000 64.000000"
 preserveAspectRatio="xMidYMid meet">

<g transform="translate(0.000000,64.000000) scale(0.100000,-0.100000)"
fill="#000000" stroke="none">
<path d="M600 629 c0 -27 -19 -37 -50 -26 -54 20 -160 -41 -160 -93 0 -18 -39
-59 -42 -44 -1 5 -2 34 -2 64 -1 44 -4 55 -18 58 -10 2 -25 -4 -33 -12 -9 -9
-24 -20 -33 -25 -16 -9 -16 -12 -1 -38 34 -59 18 -186 -22 -176 -12 4 -28 -5
-46 -24 -16 -16 -38 -35 -50 -42 -22 -11 -33 -51 -15 -51 5 0 18 -9 30 -20 27
-25 51 -16 59 21 7 35 21 47 29 25 8 -20 -13 -81 -33 -97 -8 -7 -33 -12 -56
-12 -23 1 -36 -2 -31 -7 26 -24 95 -11 117 23 24 37 31 101 12 117 -13 11 -19
10 -35 -5 -11 -10 -20 -26 -20 -37 0 -23 -11 -23 -40 2 -24 21 -24 21 -3 26
11 3 30 19 43 36 17 23 27 28 46 24 20 -5 26 -1 39 31 17 40 13 146 -7 170 -6
7 1 18 21 32 l29 21 -1 -59 c-1 -33 2 -63 6 -67 14 -15 62 21 72 53 15 44 42
71 87 85 106 32 133 -87 37 -164 -31 -25 -39 -38 -39 -65 0 -40 14 -42 61 -10
60 40 59 40 55 15 -3 -13 -5 -29 -5 -35 -1 -7 -10 -13 -21 -13 -51 0 -118 -57
-89 -76 5 -3 9 1 9 8 0 18 56 48 90 48 27 0 29 4 36 46 8 55 -7 72 -43 49 -13
-8 -34 -22 -48 -31 -24 -16 -25 -16 -25 7 0 16 10 30 31 41 18 11 38 36 50 64
19 42 20 58 8 103 -2 8 6 20 19 26 22 12 22 12 2 30 -16 14 -20 15 -20 4z"/>
<path d="M101 582 c-4 -9 -11 -34 -15 -55 -4 -21 -23 -79 -42 -129 -19 -50
-37 -117 -41 -148 -15 -150 90 -262 232 -247 57 6 139 43 169 76 11 12 30 21
44 21 25 0 26 -7 8 -50 -9 -24 7 -39 47 -43 43 -5 65 19 49 50 -5 10 -12 35
-16 56 -4 23 -16 43 -31 53 -14 9 -21 22 -18 30 3 8 1 14 -5 14 -10 0 -22 -23
-22 -41 0 -5 6 -9 14 -9 21 0 46 -40 46 -72 0 -15 5 -30 10 -33 21 -13 9 -25
-25 -25 -36 0 -43 8 -24 27 6 6 9 21 7 34 -2 19 -10 25 -37 27 -26 3 -40 -3
-65 -26 -95 -91 -256 -95 -320 -9 -55 75 -59 154 -14 277 17 47 39 114 50 150
l19 65 -5 -58 c-3 -31 -17 -98 -31 -148 -29 -96 -29 -157 0 -195 20 -28 28
-12 10 22 -21 41 -19 77 10 175 34 113 44 214 21 222 -9 4 -19 0 -25 -11z"/>
<path d="M486 551 c-4 -7 -5 -15 -2 -18 9 -9 19 4 14 18 -4 11 -6 11 -12 0z"/>
<path d="M530 490 c0 -5 4 -10 9 -10 6 0 13 5 16 10 3 6 -1 10 -9 10 -9 0 -16
-4 -16 -10z"/>
</g>
</svg>
