<?xml version="1.0" standalone="no"?>
<!DOCTYPE svg PUBLIC "-//W3C//DTD SVG 20010904//EN"
 "http://www.w3.org/TR/2001/REC-SVG-20010904/DTD/svg10.dtd">
<svg version="1.0" xmlns="http://www.w3.org/2000/svg"
 width="64.000000pt" height="64.000000pt" viewBox="0 0 64.000000 64.000000"
 preserveAspectRatio="xMidYMid meet">

<g transform="translate(0.000000,64.000000) scale(0.100000,-0.100000)"
fill="#000000" stroke="none">
<path d="M90 592 c0 -48 36 -72 108 -72 l62 0 0 -30 c0 -29 -2 -30 -43 -30
-29 0 -49 -6 -59 -17 -9 -10 -32 -72 -52 -139 -39 -133 -48 -230 -21 -240 8
-4 15 -15 15 -25 0 -15 7 -19 40 -19 33 0 40 3 40 20 0 19 7 20 140 20 133 0
140 -1 140 -20 0 -17 7 -20 40 -20 33 0 40 4 40 19 0 10 7 21 15 25 27 10 18
107 -21 240 -20 67 -43 129 -52 139 -10 11 -30 17 -59 17 -41 0 -43 1 -43 30
l0 30 64 0 c58 0 67 3 85 26 12 15 21 37 21 50 l0 24 -230 0 -230 0 0 -28z
m440 -6 c0 -8 -7 -22 -16 -30 -23 -24 -365 -24 -388 0 -9 8 -16 22 -16 30 0
12 35 14 210 14 175 0 210 -2 210 -14z m-170 -96 c0 -28 -2 -30 -40 -30 -38 0
-40 2 -40 30 0 28 2 30 40 30 38 0 40 -2 40 -30z m109 -63 c21 -26 81 -245 81
-296 l0 -51 -230 0 -230 0 0 51 c0 51 60 270 81 296 16 19 282 19 298 0z
m-309 -377 c0 -5 -9 -10 -20 -10 -11 0 -20 5 -20 10 0 6 9 10 20 10 11 0 20
-4 20 -10z m360 0 c0 -5 -9 -10 -20 -10 -11 0 -20 5 -20 10 0 6 9 10 20 10 11
0 20 -4 20 -10z"/>
<path d="M250 391 c-42 -22 -80 -83 -80 -129 0 -51 35 -109 80 -132 50 -25 90
-25 140 0 45 23 80 80 80 130 0 109 -124 183 -220 131z m60 -16 c0 -8 5 -15
10 -15 6 0 10 7 10 15 0 18 -1 18 39 4 25 -9 30 -15 25 -31 -5 -16 -2 -19 14
-14 16 5 22 0 31 -25 14 -40 14 -39 -4 -39 -8 0 -15 -4 -15 -10 0 -5 7 -10 15
-10 18 0 18 1 4 -39 -9 -25 -15 -30 -31 -25 -16 5 -19 2 -14 -14 5 -16 0 -22
-25 -31 -40 -14 -39 -14 -39 4 0 8 -4 15 -10 15 -5 0 -10 -7 -10 -15 0 -18 1
-18 -39 -4 -25 9 -30 15 -25 31 5 16 2 19 -14 14 -16 -5 -22 0 -31 25 -14 40
-14 39 4 39 8 0 15 5 15 10 0 6 -7 10 -15 10 -18 0 -18 -1 -4 39 9 25 15 30
31 25 17 -5 19 -2 14 14 -5 16 -1 22 21 30 39 14 43 14 43 -3z"/>
<path d="M350 306 c-6 -8 -21 -16 -33 -18 -16 -2 -22 -10 -22 -28 0 -20 5 -25
25 -25 18 0 26 6 28 22 2 12 10 27 18 33 16 14 19 30 5 30 -5 0 -14 -6 -21
-14z m-20 -46 c0 -5 -4 -10 -10 -10 -5 0 -10 5 -10 10 0 6 5 10 10 10 6 0 10
-4 10 -10z"/>
</g>
</svg>
