<?xml version="1.0" standalone="no"?>
<!DOCTYPE svg PUBLIC "-//W3C//DTD SVG 20010904//EN"
 "http://www.w3.org/TR/2001/REC-SVG-20010904/DTD/svg10.dtd">
<svg version="1.0" xmlns="http://www.w3.org/2000/svg"
 width="64.000000pt" height="64.000000pt" viewBox="0 0 64.000000 64.000000"
 preserveAspectRatio="xMidYMid meet">

<g transform="translate(0.000000,64.000000) scale(0.100000,-0.100000)"
fill="#000000" stroke="none">
<path d="M222 545 c-18 -8 -35 -21 -38 -29 -3 -8 -21 -17 -39 -20 -32 -6 -75
-46 -75 -68 0 -5 -8 -17 -19 -26 -21 -19 -56 -180 -46 -212 13 -42 137 -92
261 -105 121 -13 306 28 353 79 23 24 23 24 8 126 l-15 101 -71 70 c-75 73
-100 83 -156 57 -22 -10 -28 -8 -48 10 -30 29 -75 35 -115 17z m108 -47 c28
-30 30 -31 49 -14 10 9 33 18 49 18 36 1 82 -26 82 -47 0 -8 14 -22 30 -30 34
-17 56 -55 47 -79 -8 -21 -71 -51 -138 -66 -64 -14 -243 -9 -302 9 -21 7 -52
25 -70 42 l-32 29 21 18 c12 10 25 28 28 40 11 33 34 52 65 52 19 0 34 9 49
30 32 43 82 42 122 -2z m-255 -202 c33 -23 125 -46 211 -52 90 -7 202 12 269
46 21 11 40 18 43 16 2 -3 6 -32 9 -65 l6 -61 -55 -25 c-79 -36 -158 -48 -278
-42 -111 6 -152 16 -212 54 -32 20 -38 29 -38 58 0 36 15 46 37 24 6 -6 19 -9
29 -7 15 4 12 9 -18 27 -21 13 -38 27 -38 32 0 13 13 11 35 -5z"/>
<path d="M430 476 c0 -8 9 -17 19 -21 11 -3 22 -12 25 -20 6 -17 26 -20 26 -5
0 14 -46 60 -60 60 -5 0 -10 -6 -10 -14z"/>
<path d="M268 469 c-37 -21 -9 -77 32 -64 22 7 27 44 8 63 -14 14 -18 14 -40
1z m32 -29 c0 -5 -4 -10 -10 -10 -5 0 -10 5 -10 10 0 6 5 10 10 10 6 0 10 -4
10 -10z"/>
<path d="M396 471 c-4 -5 -2 -12 3 -15 5 -4 12 -2 15 3 4 5 2 12 -3 15 -5 4
-12 2 -15 -3z"/>
<path d="M135 380 c-8 -27 12 -52 39 -48 16 2 21 10 21 33 0 25 -4 31 -27 33
-19 2 -28 -2 -33 -18z m40 -9 c3 -5 1 -12 -5 -16 -5 -3 -10 1 -10 9 0 18 6 21
15 7z"/>
<path d="M378 375 c-10 -22 -9 -29 10 -47 20 -20 22 -20 46 -4 30 19 33 38 10
60 -23 24 -53 20 -66 -9z m52 -20 c0 -8 -7 -15 -15 -15 -8 0 -15 7 -15 15 0 8
7 15 15 15 8 0 15 -7 15 -15z"/>
<path d="M120 230 c0 -5 5 -10 10 -10 6 0 10 5 10 10 0 6 -4 10 -10 10 -5 0
-10 -4 -10 -10z"/>
</g>
</svg>
