<?xml version="1.0" standalone="no"?>
<!DOCTYPE svg PUBLIC "-//W3C//DTD SVG 20010904//EN"
 "http://www.w3.org/TR/2001/REC-SVG-20010904/DTD/svg10.dtd">
<svg version="1.0" xmlns="http://www.w3.org/2000/svg"
 width="64.000000pt" height="64.000000pt" viewBox="0 0 64.000000 64.000000"
 preserveAspectRatio="xMidYMid meet">

<g transform="translate(0.000000,64.000000) scale(0.100000,-0.100000)"
fill="#000000" stroke="none">
<path d="M500 608 c-53 -27 -79 -68 -87 -139 -8 -65 -35 -96 -93 -105 -46 -8
-61 -27 -37 -51 19 -19 79 -11 126 18 38 23 70 88 71 142 0 49 34 84 90 93 45
7 60 25 40 49 -18 21 -59 19 -110 -7z m50 -18 c0 -11 -30 -21 -42 -14 -7 5 -4
12 7 20 18 13 35 10 35 -6z m48 8 c-6 -18 -25 -20 -31 -3 -5 10 0 15 14 15 12
0 19 -5 17 -12z m-111 -55 c-3 -3 -11 -2 -17 2 -8 5 -7 11 2 22 12 15 13 14
16 -1 2 -10 1 -20 -1 -23z m-17 -22 c0 -22 -13 -39 -25 -35 -16 7 -7 44 11 44
8 0 14 -4 14 -9z m-10 -75 c0 -26 -14 -41 -29 -32 -13 8 0 56 15 56 8 0 14
-10 14 -24z m-26 -55 c3 -4 -3 -16 -13 -25 -22 -20 -40 -4 -21 19 14 17 26 19
34 6z m-54 -46 c0 -8 -4 -15 -9 -15 -5 0 -16 -3 -25 -6 -10 -4 -16 -1 -16 9 0
13 13 21 43 26 4 0 7 -6 7 -14z m-60 -16 c0 -5 -7 -9 -15 -9 -15 0 -20 12 -9
23 8 8 24 -1 24 -14z"/>
<path d="M22 448 c-27 -27 0 -58 53 -58 41 0 71 -38 78 -99 3 -29 14 -67 24
-84 23 -41 96 -79 143 -75 30 3 35 7 35 28 0 21 -6 26 -37 31 -44 7 -85 32
-91 56 -3 10 -8 38 -11 63 -8 57 -36 105 -73 123 -43 22 -106 30 -121 15z m41
-23 c-6 -17 -25 -15 -31 3 -2 7 5 12 17 12 14 0 19 -5 14 -15z m62 -4 c3 -5 1
-12 -4 -15 -12 -8 -41 3 -41 15 0 12 37 12 45 0z m43 -39 c2 -7 -3 -12 -12
-12 -9 0 -16 7 -16 16 0 17 22 14 28 -4z m25 -41 c6 -24 -19 -36 -27 -14 -7
16 0 33 13 33 5 0 11 -9 14 -19z m7 -61 c0 -11 0 -23 1 -27 0 -4 -4 -9 -9 -11
-13 -4 -26 34 -17 48 10 17 25 11 25 -10z m30 -65 c19 -23 1 -39 -21 -19 -10
9 -16 21 -13 25 8 13 20 11 34 -6z m70 -51 c0 -8 -6 -14 -12 -14 -21 0 -41 17
-34 28 8 14 46 3 46 -14z m40 -4 c0 -5 -7 -10 -15 -10 -8 0 -15 5 -15 10 0 6
7 10 15 10 8 0 15 -4 15 -10z"/>
<path d="M510 318 c-52 -27 -90 -89 -90 -149 0 -50 -26 -79 -85 -94 -38 -9
-51 -17 -53 -33 -7 -47 107 -34 159 17 28 28 49 85 49 134 0 38 40 75 89 83
42 7 59 28 40 50 -17 20 -59 17 -109 -8z m50 -18 c0 -11 -30 -21 -42 -14 -7 5
-4 12 7 20 18 13 35 10 35 -6z m48 8 c-6 -18 -25 -20 -31 -3 -5 10 0 15 14 15
12 0 19 -5 17 -12z m-108 -38 c0 -11 -4 -20 -9 -20 -14 0 -23 18 -16 30 10 17
25 11 25 -10z m-20 -42 c0 -22 -15 -37 -28 -29 -7 4 -10 15 -6 24 7 20 34 23
34 5z m-13 -69 c4 -19 -13 -43 -25 -36 -13 9 -2 59 12 54 6 -2 12 -10 13 -18z
m-23 -58 c3 -4 -3 -16 -13 -25 -22 -20 -40 -4 -21 19 14 17 26 19 34 6z m-54
-46 c0 -8 -4 -15 -9 -15 -5 0 -16 -3 -25 -6 -10 -4 -16 -1 -16 9 0 13 13 21
43 26 4 0 7 -6 7 -14z m-69 -18 c-13 -13 -26 -3 -16 12 3 6 11 8 17 5 6 -4 6
-10 -1 -17z"/>
</g>
</svg>
